# xmcd
#
# Track frame offsets:
#	150
#	28449
#	55627
#	76706
#	99711
#	132605
#	159020
#	193339
#	222262
#
# Disc length: 3201 seconds
#
# Revision: 1
# Processed by: cddbd v1.5.2PL0 Copyright (c) Steve Scherf et al.
# Submitted via: audiograbber 1.83.01
#
DISCID=790c7f09
DTITLE=Reform - Der Löwenzahn
DYEAR=1900
DGENRE=DDR
TTITLE0=Das hab ich nicht so gern
TTITLE1=Der Löwenzahn
TTITLE2=Über uns
TTITLE3=Wenn die Blätter fallen ...
TTITLE4=Stadtgesicht
TTITLE5=Schöner Traum
TTITLE6=Wie ein Baum
TTITLE7=Wände wie aus Glas
TTITLE8=Was ich liebe9
EXTD=
EXTT0=
EXTT1=
EXTT2=
EXTT3=
EXTT4=
EXTT5=
EXTT6=
EXTT7=
EXTT8=
PLAYORDER=
